<svg width="24.000000" height="24.000000" viewBox="0 0 24 24" fill="none" xmlns="http://www.w3.org/2000/svg" xmlns:xlink="http://www.w3.org/1999/xlink">
	<desc>
			Created with Pixso.
	</desc>
	<defs>
		<clipPath id="clip421_9985">
			<rect id="Frame" rx="0.000000" width="23.000000" height="23.000000" transform="translate(0.500000 0.500000)" fill="white" fill-opacity="0"/>
		</clipPath>
	</defs>
	<rect id="Frame" rx="0.000000" width="23.000000" height="23.000000" transform="translate(0.500000 0.500000)" fill="#FFFFFF" fill-opacity="0"/>
	<g clip-path="url(#clip421_9985)">
		<path id="Vector" d="M21 10L21 8C20.99 7.64 20.9 7.3 20.73 7C20.55 6.69 20.3 6.44 20 6.27L13 2.27C12.69 2.09 12.35 2 12 2C11.64 2 11.3 2.09 11 2.27L4 6.27C3.69 6.44 3.44 6.69 3.26 7C3.09 7.3 3 7.64 3 8L3 16C3 16.35 3.09 16.69 3.26 16.99C3.44 17.3 3.69 17.55 4 17.73L11 21.73C11.3 21.9 11.64 21.99 12 21.99C12.35 21.99 12.69 21.9 13 21.73L15 20.59" stroke="#4D8630" stroke-opacity="1.000000" stroke-width="2.000000" stroke-linejoin="round" stroke-linecap="round"/>
		<path id="Vector" d="M7.5 4.27L16.5 9.42" stroke="#4D8630" stroke-opacity="1.000000" stroke-width="2.000000" stroke-linejoin="round" stroke-linecap="round"/>
		<path id="Vector" d="M3.29 7L12 12L20.71 7" stroke="#4D8630" stroke-opacity="1.000000" stroke-width="2.000000" stroke-linejoin="round" stroke-linecap="round"/>
		<path id="Vector" d="M12 22L12 12" stroke="#4D8630" stroke-opacity="1.000000" stroke-width="2.000000" stroke-linejoin="round" stroke-linecap="round"/>
		<path id="Vector" d="M18.5 18C17.11 18 16 16.88 16 15.5C16 14.11 17.11 13 18.5 13C19.88 13 21 14.11 21 15.5C21 16.88 19.88 18 18.5 18Z" stroke="#4D8630" stroke-opacity="1.000000" stroke-width="2.000000" stroke-linejoin="round"/>
		<path id="Vector" d="M20.27 17.27L22 19" stroke="#4D8630" stroke-opacity="1.000000" stroke-width="2.000000" stroke-linejoin="round" stroke-linecap="round"/>
	</g>
</svg>
